#!OML:ASF G:\JayActor3\Patient Classification 1\Patient 1\Session 5\male.ASF
:FULLY-SPECIFIED
:DEGREES
269
root -30.0253 16.6627 -5.66334 -75.8368 87.5691 -98.0541
lowerback 24.2858 -1.58394 2.86677
upperback 5.04501 -0.993921 -0.278491
thorax -8.00435 -0.383903 -1.6687
lowerneck 3.93235 -0.34758 1.40777
upperneck -12.613 0.0142209 1.74489
head -4.90895 -0.0849751 0.338402
rclavicle -1.11319e-014 1.19271e-015
rhumerus -32.9808 -1.57702 -87.551
rradius 31.5371
rwrist -4.02287
rhand -21.2734 -7.83946
rfingers 7.12502
rthumb 5.11039 -37.7578
lclavicle -1.11319e-014 1.19271e-015
lhumerus -35.3076 1.99668 86.3446
lradius 25.7747
lwrist 21.509
lhand -18.2529 10.1755
lfingers 7.12502
lthumb 8.02628 40.0031
rfemur -50.936 13.3737 21.7487
rtibia 47.5059
rfoot -17.3168 -15.6213
rtoes 6.77053
lfemur -37.5631 8.99701 -15.3785
ltibia 71.149
lfoot -3.5699 -7.10279
ltoes -9.07004
270
root -29.9198 16.662 -5.66251 -78.0716 87.4285 -100.266
lowerback 24.3162 -1.59663 3.01705
upperback 5.04937 -0.966467 -0.233999
thorax -8.01539 -0.37322 -1.71422
lowerneck 3.92092 -0.350119 1.40743
upperneck -12.5889 0.00862578 1.73678
head -4.89762 -0.0871673 0.335855
rclavicle 2.0276e-014 2.46493e-014
rhumerus -33.0196 -1.56363 -87.5295
rradius 31.4307
rwrist -3.94911
rhand -21.2028 -7.89293
rfingers 7.12502
rthumb 5.17856 -37.8097
lclavicle 2.0276e-014 2.46493e-014
lhumerus -35.289 1.96918 86.3396
lradius 25.755
lwrist 21.5266
lhand -18.2565 10.205
lfingers 7.12502
lthumb 8.02281 40.0327
rfemur -50.5004 13.3993 22.0131
rtibia 47.5959
rfoot -17.7977 -15.7103
rtoes 6.78334
lfemur -39.3879 8.68386 -15.3358
ltibia 71.8367
lfoot -4.64432 -6.25137
ltoes -9.68044
271
root -29.8136 16.6606 -5.66233 -79.8214 87.3129 -101.971
lowerback 24.3557 -1.60069 3.13855
upperback 5.0596 -0.934788 -0.196389
thorax -8.02389 -0.359661 -1.7521
lowerneck 3.89543 -0.350833 1.41175
upperneck -12.5492 0.00269247 1.70968
head -4.87753 -0.0886424 0.325891
rclavicle 7.95139e-016 2.62396e-014
rhumerus -33.0589 -1.53044 -87.5128
rradius 31.3285
rwrist -3.85528
rhand -21.0966 -7.94042
rfingers 7.12502
rthumb 5.28109 -37.8546
lclavicle 7.95139e-016 2.62396e-014
lhumerus -35.2779 1.93157 86.3369
lradius 25.7503
lwrist 21.5758
lhand -18.2675 10.2573
lfingers 7.12502
lthumb 8.0122 40.0854
rfemur -50.0443 13.4253 22.2521
rtibia 47.6967
rfoot -18.2917 -15.799
rtoes 6.78734
lfemur -41.142 8.36804 -15.3448
ltibia 72.3121
lfoot -5.64177 -5.28164
ltoes -10.1965
272
root -29.7068 16.6585 -5.66248 -81.2796 87.2241 -103.359
lowerback 24.4112 -1.59918 3.22834
upperback 5.07516 -0.903123 -0.164848
thorax -8.03435 -0.345189 -1.77843
lowerneck 3.85849 -0.348354 1.41255
upperneck -12.4979 -0.000986364 1.67304
head -4.85077 -0.0882473 0.31311
rclavicle 1.23246e-014 9.74045e-015
rhumerus -33.1015 -1.47596 -87.5016
rradius 31.2348
rwrist -3.74826
rhand -20.9605 -7.98036
rfingers 7.12502
rthumb 5.4125 -37.8912
lclavicle 1.23246e-014 9.74045e-015
lhumerus -35.2764 1.88918 86.3332
lradius 25.759
lwrist 21.6556
lhand -18.2681 10.3022
lfingers 7.12502
lthumb 8.01158 40.1303
rfemur -49.5621 13.4581 22.4631
rtibia 47.808
rfoot -18.7982 -15.8922
rtoes 6.76447
lfemur -42.8153 8.0534 -15.4006
ltibia 72.5797
lfoot -6.58644 -4.23216
ltoes -10.5235
273
root -29.5994 16.6554 -5.66274 -82.3419 87.1666 -104.328
lowerback 24.4813 -1.5866 3.27902
upperback 5.09495 -0.866735 -0.142164
thorax -8.04683 -0.327515 -1.7935
lowerneck 3.82375 -0.346025 1.40648
upperneck -12.4472 -0.00489419 1.6402
head -4.82473 -0.0878757 0.302887
rclavicle -1.51076e-014 -2.3059e-014
rhumerus -33.1509 -1.41211 -87.4963
rradius 31.159
rwrist -3.64898
rhand -20.807 -8.01812
rfingers 7.12502
rthumb 5.56074 -37.9252
lclavicle -1.51076e-014 -2.3059e-014
lhumerus -35.2829 1.84251 86.3241
lradius 25.7756
lwrist 21.7542
lhand -18.2587 10.347
lfingers 7.12502
lthumb 8.02069 40.1748
rfemur -49.0604 13.5085 22.6399
rtibia 47.9342
rfoot -19.3093 -15.9919
rtoes 6.70733
lfemur -44.404 7.74972 -15.5052
ltibia 72.6443
lfoot -7.43605 -3.15068
ltoes -10.5916
274
root -29.4916 16.6513 -5.66302 -83.1178 87.1378 -104.992
lowerback 24.5624 -1.56439 3.29469
upperback 5.11929 -0.826581 -0.12719
thorax -8.05929 -0.30715 -1.79816
lowerneck 3.78892 -0.344225 1.39561
upperneck -12.4034 -0.00885614 1.61301
head -4.80124 -0.0875844 0.295492
rclavicle 1.25234e-014 2.40529e-014
rhumerus -33.2005 -1.34837 -87.4933
rradius 31.0926
rwrist -3.56203
rhand -20.6501 -8.05009
rfingers 7.12502
rthumb 5.71221 -37.9531
lclavicle 1.25234e-014 2.40529e-014
lhumerus -35.2936 1.79654 86.3076
lradius 25.7979
lwrist 21.8534
lhand -18.2355 10.39
lfingers 7.12502
lthumb 8.04304 40.2169
rfemur -48.5445 13.5763 22.7847
rtibia 48.0778
rfoot -19.8245 -16.0946
rtoes 6.61204
lfemur -45.9173 7.46304 -15.6549
ltibia 72.5201
lfoot -8.2248 -2.08357
ltoes -10.3765
275
root -29.3836 16.6453 -5.66326 -83.8367 87.1326 -105.592
lowerback 24.6442 -1.53617 3.28386
upperback 5.14585 -0.78573 -0.117963
thorax -8.06934 -0.285826 -1.79424
lowerneck 3.76572 -0.345519 1.37827
upperneck -12.3783 -0.0151911 1.59729
head -4.78711 -0.0888466 0.293394
rclavicle 1.80894e-014 3.67752e-014
rhumerus -33.25 -1.29384 -87.49
rradius 31.0363
rwrist -3.49153
rhand -20.5007 -8.07832
rfingers 7.12502
rthumb 5.85639 -37.9774
lclavicle 1.80894e-014 3.67752e-014
lhumerus -35.3056 1.754 86.2814
lradius 25.8201
lwrist 21.9433
lhand -18.2002 10.427
lfingers 7.12502
lthumb 8.0771 40.2526
rfemur -48.0307 13.6489 22.9043
rtibia 48.2453
rfoot -20.3427 -16.1965
rtoes 6.4854
lfemur -47.3621 7.18867 -15.8424
ltibia 72.212
lfoot -8.95018 -1.07579
ltoes -10.0295
276
root -29.2753 16.6374 -5.6637 -84.3792 87.1433 -106.012
lowerback 24.721 -1.50055 3.25477
upperback 5.17217 -0.740874 -0.11436
thorax -8.07671 -0.262307 -1.78735
lowerneck 3.76149 -0.351197 1.36421
upperneck -12.3753 -0.0251817 1.58883
head -4.78508 -0.0926051 0.293521
rclavicle -1.41137e-014 -3.35946e-014
rhumerus -33.3012 -1.25302 -87.4866
rradius 30.9853
rwrist -3.43669
rhand -20.3749 -8.09781
rfingers 7.12502
rthumb 5.97788 -37.9935
lclavicle -1.41137e-014 -3.35946e-014
lhumerus -35.3251 1.7155 86.2439
lradius 25.8452
lwrist 22.0144
lhand -18.1557 10.4545
lfingers 7.12502
lthumb 8.12004 40.2785
rfemur -47.5238 13.7247 23.0083
rtibia 48.4364
rfoot -20.8681 -16.286
rtoes 6.42263
lfemur -48.7429 6.937 -16.0621
ltibia 71.7294
lfoot -9.62206 -0.147904
ltoes -9.65825
277
root -29.1665 16.6272 -5.66445 -84.9355 87.1582 -106.446
lowerback 24.7941 -1.46291 3.22029
upperback 5.19701 -0.695175 -0.111574
thorax -8.08377 -0.238371 -1.77861
lowerneck 3.77225 -0.359582 1.35412
upperneck -12.3892 -0.0370409 1.58536
head -4.7924 -0.0978512 0.294853
rclavicle -1.03368e-014 -3.37934e-015
rhumerus -33.354 -1.22855 -87.4802
rradius 30.9361
rwrist -3.38462
rhand -20.2817 -8.11184
rfingers 7.12502
rthumb 6.06785 -38.0049
lclavicle -1.03368e-014 -3.37934e-015
lhumerus -35.3513 1.68742 86.1961
lradius 25.8679
lwrist 22.0562
lhand -18.1211 10.501
lfingers 7.12502
lthumb 8.15346 40.3237
rfemur -47.0241 13.7912 23.1124
rtibia 48.6496
rfoot -21.4035 -16.3631
rtoes 6.41071
lfemur -50.0625 6.70105 -16.3004
ltibia 71.0797
lfoot -10.3016 0.65409
ltoes -9.50446
278
root -29.0572 16.6149 -5.66563 -85.4256 87.1662 -106.816
lowerback 24.8658 -1.42365 3.19085
upperback 5.21846 -0.646281 -0.106886
thorax -8.0937 -0.213215 -1.77169
lowerneck 3.79015 -0.371021 1.34954
upperneck -12.4142 -0.051638 1.58519
head -4.80529 -0.104926 0.29654
rclavicle 2.22639e-014 3.22031e-014
rhumerus -33.4087 -1.22458 -87.4671
rradius 30.8935
rwrist -3.33995
rhand -20.2175 -8.12329
rfingers 7.12502
rthumb 6.12987 -38.0146
lclavicle 2.22639e-014 3.22031e-014
lhumerus -35.3857 1.66877 86.1403
lradius 25.8901
lwrist 22.0716
lhand -18.092 10.5255
lfingers 7.12502
lthumb 8.1815 40.3471
rfemur -46.5301 13.848 23.2303
rtibia 48.8741
rfoot -21.9423 -16.4293
rtoes 6.44446
lfemur -51.3228 6.48946 -16.5465
ltibia 70.2676
lfoot -10.9893 1.32762
ltoes -9.54175
279
root -28.9471 16.6012 -5.66733 -85.883 87.1593 -107.156
lowerback 24.9342 -1.38368 3.17552
upperback 5.23774 -0.592757 -0.0974042
thorax -8.10422 -0.186247 -1.7691
lowerneck 3.80862 -0.384815 1.35538
upperneck -12.4435 -0.0686155 1.5828
head -4.81993 -0.113543 0.295764
rclavicle -9.34288e-015 -1.35174e-014
rhumerus -33.4653 -1.24059 -87.4458
rradius 30.8605
rwrist -3.3021
rhand -20.1853 -8.13995
rfingers 7.12502
rthumb 6.16092 -38.0304
lclavicle -9.34288e-015 -1.35174e-014
lhumerus -35.4225 1.66144 86.0789
lradius 25.9042
lwrist 22.0709
lhand -18.0829 10.5505
lfingers 7.12502
lthumb 8.1903 40.3718
rfemur -46.0326 13.8945 23.3702
rtibia 49.0948
rfoot -22.4828 -16.4937
rtoes 6.49426
lfemur -52.5183 6.30742 -16.7964
ltibia 69.2926
lfoot -11.6764 1.88899
ltoes -9.88913
280
root -28.8359 16.5871 -5.66946 -86.4614 87.1314 -107.619
lowerback 25.0051 -1.34913 3.18039
upperback 5.25359 -0.540331 -0.0801032
thorax -8.11999 -0.160336 -1.76918
lowerneck 3.81719 -0.397083 1.365
upperneck -12.4672 -0.0834511 1.58055
head -4.83049 -0.121175 0.294198
rclavicle 2.127e-014 4.13472e-014
rhumerus -33.526 -1.27297 -87.4146
rradius 30.8393
rwrist -3.26682
rhand -20.1722 -8.15966
rfingers 7.12502
rthumb 6.17357 -38.0497
lclavicle 2.127e-014 4.13472e-014
lhumerus -35.463 1.67104 86.0108
lradius 25.9067
lwrist 22.0646
lhand -18.0881 10.558
lfingers 7.12502
lthumb 8.18532 40.3795
rfemur -45.5171 13.93 23.5377
rtibia 49.2909
rfoot -23.0249 -16.5655
rtoes 6.52262
lfemur -53.6396 6.15642 -17.0462
ltibia 68.1494
lfoot -12.3365 2.35789
ltoes -10.2957
281
root -28.7235 16.5738 -5.67209 -87.0761 87.0843 -108.123
lowerback 25.0735 -1.31761 3.20654
upperback 5.26548 -0.486092 -0.0567725
thorax -8.13884 -0.134181 -1.77546
lowerneck 3.82344 -0.408169 1.37859
upperneck -12.4868 -0.0963397 1.57958
head -4.83905 -0.12807 0.292233
rclavicle -3.77691e-015 -9.93923e-015
rhumerus -33.5931 -1.32323 -87.375
rradius 30.8316
rwrist -3.23384
rhand -20.1786 -8.17969
rfingers 7.12502
rthumb 6.16743 -38.0699
lclavicle -3.77691e-015 -9.93923e-015
lhumerus -35.5068 1.69391 85.9371
lradius 25.8944
lwrist 22.0606
lhand -18.1163 10.5577
lfingers 7.12502
lthumb 8.15813 40.3802
rfemur -44.9745 13.9587 23.7279
rtibia 49.4412
rfoot -23.5749 -16.6412
rtoes 6.48975
lfemur -54.6763 6.04357 -17.301
ltibia 66.8281
lfoot -12.9165 2.76282
ltoes -10.7037
282
root -28.6097 16.5627 -5.67508 -87.7223 87.0226 -108.663
lowerback 25.1352 -1.29042 3.248
upperback 5.27551 -0.433292 -0.0275327
thorax -8.15648 -0.109074 -1.78362
lowerneck 3.81814 -0.416148 1.38881
upperneck -12.4969 -0.105284 1.58239
head -4.84172 -0.132932 0.291863
rclavicle 6.36111e-015 1.63003e-014
rhumerus -33.6578 -1.38426 -87.3271
rradius 30.8288
rwrist -3.21016
rhand -20.2012 -8.18961
rfingers 7.12502
rthumb 6.1456 -38.0805
lclavicle 6.36111e-015 1.63003e-014
lhumerus -35.5491 1.7364 85.8603
lradius 25.8658
lwrist 22.0499
lhand -18.1658 10.5496
lfingers 7.12502
lthumb 8.11029 40.374
rfemur -44.3975 13.9876 23.9318
rtibia 49.5299
rfoot -24.1184 -16.728
rtoes 6.38354
lfemur -55.618 5.97181 -17.5702
ltibia 65.3179
lfoot -13.406 3.11754
ltoes -11.1129
